<svg xmlns="http://www.w3.org/2000/svg" viewBox="0 0 34.418 34.418"><path d="M32.335 11.606h-6.533v-1.009h6.533v1.009zm0 .658h-6.533v1.011h6.533v-1.011zm-.004-4.577h-6.523V9.91h6.523V7.687zm2.087-2.39v23.827a.65.65 0 0 1-.65.648h-9.397a.649.649 0 0 1-.649-.649V5.297c0-.358.29-.65.649-.65h9.397a.65.65 0 0 1 .65.65zm-1.299.647h-8.1v22.53h8.1V5.944zm-.784 7.988h-6.533v1.008h6.533v-1.008zm-1.063 7.518a2.097 2.097 0 1 1-2.097-2.098c1.158 0 2.097.941 2.097 2.098zm-.757 0a1.342 1.342 0 0 0-2.683 0 1.34 1.34 0 0 0 2.683 0zM21.937 9.218v13.505c0 .814-.655 1.473-1.461 1.473H13.18s-.414 2.948 2.212 2.948v1.475H6.546v-1.473c2.529 0 2.212-2.948 2.212-2.948H1.465A1.469 1.469 0 0 1 0 22.725V9.218c0-.814.656-1.47 1.465-1.47h19.01c.807 0 1.462.656 1.462 1.47zm-9.605 13.176a1.264 1.264 0 1 0-1.264 1.265c.699 0 1.264-.567 1.264-1.265zm8.039-13.083H1.568v11.387h18.803V9.311zm-9.29 12.292a.785.785 0 1 0 0 1.57.785.785 0 0 0 0-1.57z" fill="#010002"/></svg>