<svg xmlns="http://www.w3.org/2000/svg" viewBox="0 0 512 512"><path d="M483.265 91.429H28.735C12.891 91.429 0 104.319 0 120.163v271.673c0 15.844 12.891 28.735 28.735 28.735h454.531c15.844 0 28.735-12.891 28.735-28.735V120.163c-.001-15.844-12.892-28.734-28.736-28.734zm13.062 300.408c0 7.203-5.859 13.061-13.061 13.061H28.735c-7.202 0-13.061-5.859-13.061-13.061V120.163c0-7.202 5.859-13.061 13.061-13.061h454.531c7.202 0 13.061 5.859 13.061 13.061v271.674z"/><path d="M342.518 124.855c-51.554 0-97.738 30.873-117.732 77.722l-11.8-6.685c-2.983-8.143-9.056-15.156-17.518-19.103-8.221-3.835-17.444-4.237-25.967-1.134-8.523 3.102-15.33 9.339-19.163 17.56-7.912 16.97-.543 37.215 16.426 45.128a33.84 33.84 0 0 0 14.333 3.201c3.898 0 7.809-.681 11.582-2.048l21.949 8.192c-.07 1.728-.11 3.454-.11 5.168 0 70.58 57.42 128 128 128s128-57.42 128-128-57.421-128.001-128-128.001zm-144.829 90.439a18.17 18.17 0 0 1-10.319 9.455 18.178 18.178 0 0 1-13.982-.61c-9.138-4.261-13.105-15.163-8.845-24.3a18.171 18.171 0 0 1 10.319-9.456 18.295 18.295 0 0 1 6.265-1.112c2.634 0 5.257.577 7.716 1.722 9.138 4.262 13.107 15.163 8.846 24.301zm10.211 13.154a34.223 34.223 0 0 0 3.994-6.53 33.942 33.942 0 0 0 2.425-7.257l56.711 32.132c.264.148.367.239.367.239.972 1.016.642 2.188.358 2.796-.284.61-.95 1.62-2.351 1.531-.001 0-.151-.016-.486-.14L207.9 228.448zm134.618 136.733c-61.722 0-111.97-50.042-112.318-111.683l33.239 12.405c1.673.624 3.271.981 4.913 1.094.399.025.796.039 1.192.039 7.018 0 13.375-4.059 16.416-10.588 3.212-6.894 1.938-14.845-3.236-20.247-1.124-1.179-2.488-2.219-4.011-3.07l-40.185-22.768c17.16-42.023 58.152-69.836 103.989-69.836 61.936 0 112.327 50.39 112.327 112.327s-50.39 112.327-112.326 112.327z"/><path d="M342.521 218.899c-18.726 0-33.959 15.234-33.959 33.959 0 18.726 15.234 33.959 33.959 33.959s33.959-15.234 33.959-33.959-15.234-33.959-33.959-33.959zm0 52.245c-10.082 0-18.286-8.203-18.286-18.286 0-10.082 8.203-18.286 18.286-18.286s18.286 8.203 18.286 18.286c-.001 10.082-8.204 18.286-18.286 18.286zM201.887 164.456l12.6 9.323a134.289 134.289 0 0 1 17.611-19.477l2.566-2.332v-34.407l-153.862-.011v7.838c0 25.83-21.013 46.843-46.843 46.843h-7.837v161.259h7.837c25.83 0 46.843 21.013 46.843 46.842v7.838l153.861-.013v-34.394l-2.564-2.332c-27.323-24.845-43.249-60.182-43.694-96.947l-15.671.19c.483 39.935 17.297 78.353 46.258 105.966v11.846l-123.003.008c-3.544-28.22-25.97-50.645-54.19-54.188V187.416c28.221-3.544 50.647-25.97 54.19-54.189l123.003.008v11.855a150.015 150.015 0 0 0-17.105 19.366z"/><path d="M44.408 113.371c-12.387 0-22.465 10.078-22.465 22.465s10.078 22.465 22.465 22.465 22.465-10.078 22.465-22.465-10.078-22.465-22.465-22.465zm0 29.258a6.8 6.8 0 0 1-6.792-6.792 6.8 6.8 0 0 1 6.792-6.792 6.8 6.8 0 0 1 6.792 6.792 6.8 6.8 0 0 1-6.792 6.792zM44.408 353.698c-12.387 0-22.465 10.078-22.465 22.465s10.078 22.465 22.465 22.465 22.465-10.078 22.465-22.465-10.078-22.465-22.465-22.465zm0 29.257c-3.745 0-6.792-3.047-6.792-6.792s3.047-6.792 6.792-6.792c3.745 0 6.792 3.047 6.792 6.792s-3.047 6.792-6.792 6.792zM467.592 113.371c-12.387 0-22.465 10.078-22.465 22.465s10.078 22.465 22.465 22.465 22.465-10.078 22.465-22.465-10.078-22.465-22.465-22.465zm0 29.258a6.8 6.8 0 0 1-6.792-6.792 6.8 6.8 0 0 1 6.792-6.792 6.8 6.8 0 0 1 6.792 6.792 6.8 6.8 0 0 1-6.792 6.792zM467.592 353.698c-12.387 0-22.465 10.078-22.465 22.465s10.078 22.465 22.465 22.465 22.465-10.078 22.465-22.465-10.078-22.465-22.465-22.465zm0 29.257c-3.745 0-6.792-3.047-6.792-6.792s3.047-6.792 6.792-6.792c3.745 0 6.792 3.047 6.792 6.792s-3.047 6.792-6.792 6.792z"/></svg>