<svg xmlns="http://www.w3.org/2000/svg" viewBox="0 0 512 512"><path d="M462.367 86.204H49.633c-15.845 0-28.735 12.89-28.735 28.735v250.776h15.674V114.939c0-7.202 5.859-13.061 13.061-13.061h412.735c7.202 0 13.061 5.859 13.061 13.061v250.776h15.673V114.939c0-15.845-12.89-28.735-28.735-28.735z"/><path d="M441.469 122.776H70.531c-10.082 0-18.286 8.203-18.286 18.286v216.816h407.51V141.061c0-10.082-8.203-18.285-18.286-18.285zm2.613 219.428H67.918V141.061a2.615 2.615 0 0 1 2.612-2.612h370.939a2.615 2.615 0 0 1 2.612 2.612v201.143zM0 378.776v47.02h512v-47.02H0zm496.327 31.346H15.673v-15.673H197.66l6.617 9.927h103.445l6.617-9.927h181.987v15.673z"/><circle cx="256" cy="112.327" r="5.224"/></svg>