<svg id="Layer_1" xmlns="http://www.w3.org/2000/svg" viewBox="0 0 149.94 48.5"><style>.st0{fill:#ff5f00}.st1{fill:#eb001b}.st2{fill:#f79e1b}</style><path class="st0" d="M64.49 5.41h20.96v37.68H64.49z"/><path id="_Path_" class="st1" d="M65.82 24.25c-.01-7.35 3.37-14.3 9.15-18.84-10.4-8.18-25.46-6.37-33.63 4.03s-6.37 25.47 4.03 33.64a23.941 23.941 0 0 0 29.6 0 23.923 23.923 0 0 1-9.15-18.83z"/><path class="st2" d="M113.72 24.25c0 13.23-10.72 23.96-23.95 23.96-5.37 0-10.58-1.8-14.8-5.12 10.4-8.18 12.2-23.24 4.03-33.64a24.01 24.01 0 0 0-4.03-4.03c10.4-8.18 25.45-6.38 33.63 4.03 3.32 4.21 5.12 9.43 5.12 14.8z"/></svg>