<svg xmlns="http://www.w3.org/2000/svg" viewBox="0 0 60 60"><path d="M49.554 0H10.446L0 16.713V60h60V16.713L49.554 0zm-1.108 2l8.75 14H37V2h11.446zM30 2h5v14H25V2h5zm3.93 21.656A.992.992 0 0 0 33 23a1 1 0 0 0-1 1c0 .43.274.789.656.93l-1.725 1.725C30.789 26.274 30.43 26 30 26s-.789.274-.93.656l-1.725-1.725A.994.994 0 0 0 27 23a.992.992 0 0 0-.93.656l-.07-.07-1 1V18h1a1 1 0 0 0 2 0h4a1 1 0 0 0 2 0h1v6.586l-1-1-.07.07zM11.554 2H23v14H2.804l8.75-14zM25 58v-3.586l1 1 4-4 4 4 1-1V58H25zm12 0v-8.414l-3 3-4-4-4 4-3-3V58H2V18h21v11.414l3-3 4 4 4-4 3 3V18h21v40H37z"/><circle cx="30" cy="3" r="1"/><circle cx="27" cy="6" r="1"/><circle cx="27" cy="12" r="1"/><circle cx="30" cy="9" r="1"/><circle cx="33" cy="6" r="1"/><circle cx="33" cy="12" r="1"/><circle cx="30" cy="15" r="1"/><circle cx="30" cy="21" r="1"/></svg>