<?xml version="1.0" encoding="utf-8"?>
<!-- Generator: Adobe Illustrator 24.0.0, SVG Export Plug-In . SVG Version: 6.00 Build 0)  -->
<svg version="1.1" id="Layer_1" xmlns="http://www.w3.org/2000/svg" xmlns:xlink="http://www.w3.org/1999/xlink" x="0px" y="0px"
	 viewBox="0 0 40 40" style="enable-background:new 0 0 40 40;" xml:space="preserve">
<style type="text/css">
	.st0{fill-rule:evenodd;clip-rule:evenodd;fill:#FFFFFF;}
	.st1{fill-rule:evenodd;clip-rule:evenodd;fill:#E91E63;}
</style>
<rect x="10.25" y="9.75" class="st0" width="20.63" height="20.63"/>
<g>
	<path marker-end="none" marker-start="none" class="st1" d="M14.77,39.86l-2.02-7.15l-7.21,1.82l1.82-7.2L0.2,25.29l5.18-5.32
		L0.2,14.63l7.15-2.02L5.53,5.39l7.2,1.83l2.03-7.16l5.33,5.18l5.34-5.18l2.02,7.15l7.21-1.82l-1.83,7.2L40,14.63l-5.18,5.33
		L40,25.29l-7.15,2.02l1.82,7.21l-7.2-1.83l-2.03,7.16l-5.32-5.18L14.77,39.86z M28.37,24.93c0-1.82-1.48-3.29-3.29-3.29
		c-1.82,0-3.29,1.48-3.29,3.29c0,1.82,1.48,3.29,3.29,3.29C26.89,28.23,28.37,26.75,28.37,24.93z M15,27.37L27.58,14.8
		c0.66-0.66,0.72-1.68,0.13-2.28l0,0c-0.59-0.59-1.62-0.54-2.28,0.12L12.85,25.22c-0.66,0.66-0.72,1.68-0.12,2.28l0,0
		C13.32,28.09,14.34,28.03,15,27.37z M18.36,15.04c0.03-1.78-1.4-3.26-3.18-3.29c-1.78-0.03-3.26,1.4-3.29,3.18
		c-0.03,1.78,1.4,3.26,3.18,3.29C16.86,18.25,18.33,16.82,18.36,15.04z"/>
	<path marker-end="none" marker-start="none" class="st1" d="M25.08,23.63c0.72,0,1.31,0.59,1.31,1.31s-0.59,1.31-1.31,1.31
		c-0.72,0-1.31-0.59-1.31-1.31S24.35,23.63,25.08,23.63z"/>
	<path marker-end="none" marker-start="none" class="st1" d="M15.14,13.69c0.72,0,1.31,0.59,1.31,1.31c0,0.72-0.59,1.31-1.31,1.31
		c-0.72,0-1.31-0.59-1.31-1.31C13.84,14.28,14.42,13.69,15.14,13.69z"/>
</g>
</svg>
