<svg id="Layer_1" xmlns="http://www.w3.org/2000/svg" viewBox="0 0 149.94 48.5"><style>.st0{fill:#00579f}.st1{fill:#faa61a}</style><g id="g4158" transform="matrix(4.42996 0 0 4.42996 -81.166 -105.048)"><path id="polygon9" class="st0" d="M33.06 34.6h-2.74L32.03 24h2.74z"/><path id="path11" class="st0" d="M43 24.26c-.54-.21-1.4-.45-2.46-.45-2.71 0-4.61 1.44-4.63 3.51-.02 1.52 1.37 2.37 2.4 2.88 1.06.52 1.42.86 1.42 1.32-.01.71-.86 1.04-1.65 1.04-1.09 0-1.68-.17-2.57-.56l-.36-.17-.38 2.38c.64.29 1.83.55 3.06.56 2.88 0 4.75-1.42 4.77-3.62.01-1.21-.72-2.13-2.3-2.89-.96-.48-1.55-.81-1.55-1.31.01-.45.5-.91 1.58-.91.89-.02 1.55.19 2.04.41l.25.11.38-2.3z"/><path id="path13" class="st0" d="M46.64 30.85c.23-.61 1.09-2.97 1.09-2.97-.01.02.23-.62.36-1.01l.19.91s.52 2.54.63 3.07h-2.27zM50.03 24h-2.12c-.65 0-1.15.19-1.43.88L42.4 34.6h2.88s.47-1.31.58-1.59h3.52c.08.37.33 1.59.33 1.59h2.54L50.03 24z"/><path id="path15" class="st0" d="M28.03 24l-2.69 7.23-.29-1.47c-.5-1.69-2.05-3.53-3.79-4.44l2.46 9.27h2.9L30.93 24h-2.9z"/><path id="path17" class="st1" d="M22.85 24h-4.41l-.05.21c3.44.88 5.72 3 6.66 5.55l-.96-4.87c-.16-.67-.64-.86-1.24-.89z"/></g></svg>