<?xml version="1.0" encoding="utf-8"?>
<!-- Generator: Adobe Illustrator 24.0.0, SVG Export Plug-In . SVG Version: 6.00 Build 0)  -->
<svg version="1.1" id="Layer_1" xmlns="http://www.w3.org/2000/svg" xmlns:xlink="http://www.w3.org/1999/xlink" x="0px" y="0px"
	 viewBox="0 0 149.94 48.5" style="enable-background:new 0 0 149.94 48.5;" xml:space="preserve">
<style type="text/css">
	.st0{fill:#FF5F00;}
	.st1{fill:#EB001B;}
	.st2{fill:#F79E1B;}
</style>
<rect x="64.49" y="5.41" class="st0" width="20.96" height="37.68"/>
<path id="_Path_" class="st1" d="M65.82,24.25c-0.01-7.35,3.37-14.3,9.15-18.84c-10.4-8.18-25.46-6.37-33.63,4.03
	s-6.37,25.47,4.03,33.64c8.69,6.83,20.91,6.83,29.6,0C69.19,38.55,65.82,31.6,65.82,24.25z"/>
<path class="st2" d="M113.72,24.25c0,13.23-10.72,23.96-23.95,23.96c-5.37,0-10.58-1.8-14.8-5.12c10.4-8.18,12.2-23.24,4.03-33.64
	c-1.18-1.5-2.53-2.85-4.03-4.03c10.4-8.18,25.45-6.38,33.63,4.03C111.92,13.66,113.72,18.88,113.72,24.25L113.72,24.25z"/>
</svg>
