<?xml version="1.0" encoding="utf-8"?>
<!-- Generator: Adobe Illustrator 24.0.0, SVG Export Plug-In . SVG Version: 6.00 Build 0)  -->
<svg version="1.1" id="Layer_1" xmlns="http://www.w3.org/2000/svg" xmlns:xlink="http://www.w3.org/1999/xlink" x="0px" y="0px"
	 viewBox="0 0 149.94 48.5" style="enable-background:new 0 0 149.94 48.5;" xml:space="preserve">
<style type="text/css">
	.st0{fill:#00579F;}
	.st1{fill:#FAA61A;}
</style>
<g id="g4158" transform="matrix(4.4299631,0,0,4.4299631,-81.165783,-105.04783)">
	<polygon id="polygon9" class="st0" points="33.06,34.6 30.32,34.6 32.03,24 34.77,24 	"/>
	<path id="path11" class="st0" d="M43,24.26c-0.54-0.21-1.4-0.45-2.46-0.45c-2.71,0-4.61,1.44-4.63,3.51
		c-0.02,1.52,1.37,2.37,2.4,2.88c1.06,0.52,1.42,0.86,1.42,1.32c-0.01,0.71-0.86,1.04-1.65,1.04c-1.09,0-1.68-0.17-2.57-0.56
		l-0.36-0.17l-0.38,2.38c0.64,0.29,1.83,0.55,3.06,0.56c2.88,0,4.75-1.42,4.77-3.62c0.01-1.21-0.72-2.13-2.3-2.89
		c-0.96-0.48-1.55-0.81-1.55-1.31c0.01-0.45,0.5-0.91,1.58-0.91c0.89-0.02,1.55,0.19,2.04,0.41l0.25,0.11L43,24.26
		C43,24.26,43,24.26,43,24.26z"/>
	<path id="path13" class="st0" d="M46.64,30.85c0.23-0.61,1.09-2.97,1.09-2.97c-0.01,0.02,0.23-0.62,0.36-1.01l0.19,0.91
		c0,0,0.52,2.54,0.63,3.07C48.49,30.85,47.18,30.85,46.64,30.85L46.64,30.85z M50.03,24h-2.12c-0.65,0-1.15,0.19-1.43,0.88
		L42.4,34.6h2.88c0,0,0.47-1.31,0.58-1.59c0.32,0,3.11,0,3.52,0c0.08,0.37,0.33,1.59,0.33,1.59h2.54L50.03,24L50.03,24L50.03,24z"/>
	<path id="path15" class="st0" d="M28.03,24l-2.69,7.23l-0.29-1.47c-0.5-1.69-2.05-3.53-3.79-4.44l2.46,9.27h2.9L30.93,24L28.03,24
		L28.03,24L28.03,24z"/>
	<path id="path17" class="st1" d="M22.85,24h-4.41l-0.05,0.21c3.44,0.88,5.72,3,6.66,5.55l-0.96-4.87
		C23.93,24.22,23.45,24.03,22.85,24L22.85,24z"/>
</g>
</svg>
