<?xml version="1.0" encoding="utf-8"?>
<!-- Generator: Adobe Illustrator 15.1.0, SVG Export Plug-In . SVG Version: 6.00 Build 0)  -->
<!DOCTYPE svg PUBLIC "-//W3C//DTD SVG 1.1//EN" "http://www.w3.org/Graphics/SVG/1.1/DTD/svg11.dtd">
<svg version="1.1" id="Layer_1" xmlns="http://www.w3.org/2000/svg" xmlns:xlink="http://www.w3.org/1999/xlink" x="0px" y="0px"
	 width="130px" height="40px" viewBox="0 0 130 40" enable-background="new 0 0 130 40" xml:space="preserve">
<g>
	<defs>
		<rect id="SVGID_1_" width="130" height="40"/>
	</defs>
	<clipPath id="SVGID_2_">
		<use xlink:href="#SVGID_1_"  overflow="visible"/>
	</clipPath>
	<path clip-path="url(#SVGID_2_)" fill="#BA00E9" d="M86.739,25.441c0,1.062-0.414,2.061-1.164,2.811
		c-0.752,0.75-1.749,1.164-2.811,1.164h-5.398v-1.767h5.398c0.588,0,1.145-0.229,1.563-0.647c0.416-0.417,0.645-0.97,0.645-1.561
		c0-0.589-0.229-1.145-0.646-1.561c-0.416-0.419-0.973-0.647-1.561-0.647h-1.865c-1.063,0-2.059-0.415-2.811-1.164
		c-0.75-0.75-1.163-1.749-1.163-2.811s0.413-2.059,1.163-2.811c0.752-0.75,1.748-1.164,2.811-1.164h4.956v1.766h-4.956
		c-0.589,0-1.144,0.23-1.561,0.648c-0.418,0.416-0.647,0.972-0.647,1.561c0,0.591,0.229,1.144,0.646,1.56
		c0.418,0.419,0.973,0.648,1.562,0.648h1.865c1.062,0,2.059,0.414,2.811,1.164C86.325,23.382,86.739,24.38,86.739,25.441"/>
	<path clip-path="url(#SVGID_2_)" fill="none" stroke="#BA00E9" stroke-miterlimit="10" d="M86.739,25.441
		c0,1.062-0.414,2.061-1.164,2.811c-0.752,0.75-1.749,1.164-2.811,1.164h-5.398v-1.767h5.398c0.588,0,1.145-0.229,1.563-0.647
		c0.416-0.417,0.645-0.97,0.645-1.561c0-0.589-0.229-1.145-0.646-1.561c-0.416-0.419-0.973-0.647-1.561-0.647h-1.865
		c-1.063,0-2.059-0.415-2.811-1.164c-0.75-0.75-1.163-1.749-1.163-2.811s0.413-2.059,1.163-2.811
		c0.752-0.75,1.748-1.164,2.811-1.164h4.956v1.766h-4.956c-0.589,0-1.144,0.23-1.561,0.648c-0.418,0.416-0.647,0.972-0.647,1.561
		c0,0.591,0.229,1.144,0.646,1.56c0.418,0.419,0.973,0.648,1.562,0.648h1.865c1.062,0,2.059,0.414,2.811,1.164
		C86.325,23.382,86.739,24.38,86.739,25.441z"/>
	<polygon clip-path="url(#SVGID_2_)" fill="#BA00E9" points="99.459,15.284 99.459,29.416 97.692,29.416 97.692,21.842 
		90.626,24.769 90.626,29.416 88.859,29.416 88.859,15.284 90.626,15.284 90.626,22.858 97.692,19.932 97.692,15.284 	"/>
	<polygon clip-path="url(#SVGID_2_)" fill="none" stroke="#BA00E9" stroke-miterlimit="10" points="99.459,15.284 99.459,29.416 
		97.692,29.416 97.692,21.842 90.626,24.769 90.626,29.416 88.859,29.416 88.859,15.284 90.626,15.284 90.626,22.858 97.692,19.932 
		97.692,15.284 	"/>
	<path clip-path="url(#SVGID_2_)" fill="#BA00E9" d="M116.104,22.35c0,2.006-0.813,3.821-2.127,5.136s-3.131,2.127-5.136,2.127
		c-2.006,0-3.821-0.813-5.136-2.127s-2.127-3.13-2.127-5.136c0-2.005,0.813-3.821,2.127-5.135c1.314-1.315,3.13-2.127,5.136-2.127
		c2.005,0,3.821,0.812,5.136,2.127C115.292,18.528,116.104,20.345,116.104,22.35 M114.338,22.35c0-1.468-0.572-2.848-1.61-3.886
		s-2.418-1.61-3.886-1.61c-1.469,0-2.848,0.572-3.887,1.61c-1.038,1.038-1.609,2.418-1.609,3.886c0,1.469,0.571,2.849,1.609,3.886
		c1.039,1.039,2.418,1.61,3.887,1.61c1.468,0,2.848-0.571,3.886-1.61C113.766,25.198,114.338,23.818,114.338,22.35 M108.84,23.604
		l-1.249-1.249l1.249-1.25l1.249,1.25L108.84,23.604z"/>
	<path clip-path="url(#SVGID_2_)" fill="none" stroke="#BA00E9" stroke-miterlimit="10" d="M116.104,22.35
		c0,2.006-0.813,3.821-2.127,5.136s-3.131,2.127-5.136,2.127c-2.006,0-3.821-0.813-5.136-2.127s-2.127-3.13-2.127-5.136
		c0-2.005,0.813-3.821,2.127-5.135c1.314-1.315,3.13-2.127,5.136-2.127c2.005,0,3.821,0.812,5.136,2.127
		C115.292,18.528,116.104,20.345,116.104,22.35z M114.338,22.35c0-1.468-0.572-2.848-1.61-3.886s-2.418-1.61-3.886-1.61
		c-1.469,0-2.848,0.572-3.887,1.61c-1.038,1.038-1.609,2.418-1.609,3.886c0,1.469,0.571,2.849,1.609,3.886
		c1.039,1.039,2.418,1.61,3.887,1.61c1.468,0,2.848-0.571,3.886-1.61C113.766,25.198,114.338,23.818,114.338,22.35z M108.84,23.604
		l-1.249-1.249l1.249-1.25l1.249,1.25L108.84,23.604z"/>
	<path clip-path="url(#SVGID_2_)" fill="#BA00E9" d="M128.824,19.994c0,1.259-0.491,2.441-1.38,3.331
		c-0.89,0.89-2.074,1.38-3.331,1.38h-4.122v4.711h-1.767V15.284h5.889c1.257,0,2.441,0.49,3.331,1.379
		C128.333,17.552,128.824,18.736,128.824,19.994 M127.057,19.994c0-0.787-0.306-1.525-0.861-2.083
		c-0.558-0.555-1.296-0.861-2.082-0.861h-4.122v5.888h4.122c0.786,0,1.524-0.306,2.082-0.861
		C126.751,21.52,127.057,20.782,127.057,19.994"/>
	<path clip-path="url(#SVGID_2_)" fill="none" stroke="#BA00E9" stroke-miterlimit="10" d="M128.824,19.994
		c0,1.259-0.491,2.441-1.38,3.331c-0.89,0.89-2.074,1.38-3.331,1.38h-4.122v4.711h-1.767V15.284h5.889
		c1.257,0,2.441,0.49,3.331,1.379C128.333,17.552,128.824,18.736,128.824,19.994z M127.057,19.994c0-0.787-0.306-1.525-0.861-2.083
		c-0.558-0.555-1.296-0.861-2.082-0.861h-4.122v5.888h4.122c0.786,0,1.524-0.306,2.082-0.861
		C126.751,21.52,127.057,20.782,127.057,19.994z"/>
	<path clip-path="url(#SVGID_2_)" fill="#FFFFFF" d="M31.453,23.032c-1.078,3.356-2.287,6.766-4.07,9.829
		c-0.869,1.493-2.194,3.752-4.193,3.785c-4.99,0.083-5.427-6.928-5.393-10.206c0.037-3.45,0.362-6.892,0.469-10.34
		c0.098-3.116-0.409-5.82-0.847-8.819c-0.055,0.017-0.098,0.034-0.115,0.053c-0.433,0.486-1.021,0.841-1.449,1.369
		c-1.301,1.609-2.208,3.574-3.057,5.439c-2.296,5.04-4.053,10.324-5.777,15.576c-0.727,2.213-1.43,4.434-2.162,6.645
		c-0.255,0.769-0.617,3.073-1.329,3.596c-0.881,0.646-2.642-0.818-2.956-1.732c-0.375-1.095,0.284-2.674,0.556-3.727
		C3.505,25.3,6.72,16.27,9.812,7.287c0.094-0.274,1.268,0.278,2.065,0.966c0.794-1.442,1.941-3.252,3.487-3.46
		c2.229-0.3,4.254,2.44,4.929,4.194c1.531,3.977,0.872,8.838,0.643,12.977c-0.22,3.981-0.896,8.477,0.377,12.349
		c0.058-0.034,0.124-0.083,0.2-0.161c0.066-0.068,0.44-0.246,0.569-0.327c0.579-0.359,1.039-0.979,1.444-1.508
		c1.097-1.433,1.897-3.108,2.627-4.743c2.098-4.698,3.556-9.708,4.72-14.704c0.913-3.92,1.822-8.039,1.727-12.085
		c-0.014-0.582,2.834,0.963,2.857,1.913C35.617,9.481,33.511,16.628,31.453,23.032"/>
	<path clip-path="url(#SVGID_2_)" fill="#FFFFFF" d="M51.931,21.875c-3.207,3.339-8.095,6.851-12.947,6.749
		c-6.685-0.141-4.782-6.281-1.793-9.721c1.288-1.482,3.121-3.217,5.123-3.645c1.64-0.351,2.948,0.439,2.456,2.161
		c-0.822,2.875-4.6,5.206-7.429,6.833c1.007,1.81,4.453,1.956,6.773,1.146c2.556-0.892,4.917-2.651,6.776-4.587
		C52.365,19.274,53.365,20.38,51.931,21.875 M37.12,22.459c1.544-0.859,3.459-1.885,4.424-3.191c0.76-1.029,0.455-1.686-0.979-1.313
		c-1.306,0.34-2.545,2.216-3.056,3.337C37.315,21.714,37.188,22.102,37.12,22.459"/>
	<path clip-path="url(#SVGID_2_)" fill="#FFFFFF" d="M71.92,21.638c-0.862,1.284-2.109,2.405-3.484,3.128
		c-1.57,0.825-3.87,1.289-5.557,0.452c-1.165,1.463-2.654,3.061-4.414,3.62c-2.747,0.874-2.965-1.501-2.58-3.832
		c-0.365,0.401-0.737,0.797-1.116,1.184c-0.946,0.967-3.46,3.775-5.124,3.34c-2.561-0.67,0.805-8.097,1.43-9.69
		c0.35-0.891,3.228-2.708,2.55-0.977c-0.396,1.011-0.765,2.035-1.099,3.068c-0.226,0.698-1.586,4.04-0.964,4.706
		c0.694,0.745,4.907-4.652,5.641-5.614c0.397-0.519,2.737-1.967,2.117-0.301c-0.399,1.074-1.766,4.73-0.416,5.498
		c0.758,0.433,1.922-0.633,2.892-1.948c-1.112-1.964,1.921-5.101,3.629-5.722c0.596-0.217,0.895,0.038,0.801,0.529
		c0.025,0.071,0.041,0.153,0.03,0.268c-0.096,1.033-0.656,2.116-1.319,3.117c0.131,0.094,0.281,0.173,0.442,0.236
		c1.117,0.443,2.659,0.387,3.699-0.223c0.085-0.05,0.267-0.167,0.297-0.188c0.033-0.023,0.219-0.201,0.279-0.258
		c0.202-0.209,0.17-0.223,0.073-0.076c0.347-0.517,1.213-1.521,1.941-1.483C72.396,20.507,72.24,21.161,71.92,21.638"/>
</g>
</svg>
