<?xml version="1.0" encoding="utf-8"?>
<!-- Generator: Adobe Illustrator 24.1.2, SVG Export Plug-In . SVG Version: 6.00 Build 0)  -->
<svg version="1.1" id="Layer_1" xmlns="http://www.w3.org/2000/svg" xmlns:xlink="http://www.w3.org/1999/xlink" x="0px" y="0px"
	 viewBox="0 0 762.8 153.9" style="enable-background:new 0 0 762.8 153.9;" xml:space="preserve">
<style type="text/css">

		.st0{fill-rule:evenodd;clip-rule:evenodd;fill:url(#SVGID_1_);stroke:#FFFFFF;stroke-width:0.1;stroke-linecap:round;stroke-linejoin:round;}

		.st1{fill-rule:evenodd;clip-rule:evenodd;fill:url(#SVGID_2_);stroke:#FFFFFF;stroke-width:0.1;stroke-linecap:round;stroke-linejoin:round;}

		.st2{fill-rule:evenodd;clip-rule:evenodd;fill:url(#SVGID_3_);stroke:#FFFFFF;stroke-width:0.1;stroke-linecap:round;stroke-linejoin:round;}

		.st3{fill-rule:evenodd;clip-rule:evenodd;fill:url(#SVGID_4_);stroke:#FFFFFF;stroke-width:0.1;stroke-linecap:round;stroke-linejoin:round;}

		.st4{fill-rule:evenodd;clip-rule:evenodd;fill:url(#SVGID_5_);stroke:#FFFFFF;stroke-width:0.1;stroke-linecap:round;stroke-linejoin:round;}

		.st5{fill-rule:evenodd;clip-rule:evenodd;fill:url(#SVGID_6_);stroke:#FFFFFF;stroke-width:0.1;stroke-linecap:round;stroke-linejoin:round;}

		.st6{fill-rule:evenodd;clip-rule:evenodd;fill:url(#SVGID_7_);stroke:#FFFFFF;stroke-width:0.1;stroke-linecap:round;stroke-linejoin:round;}

		.st7{fill-rule:evenodd;clip-rule:evenodd;fill:url(#SVGID_8_);stroke:#FFFFFF;stroke-width:0.1;stroke-linecap:round;stroke-linejoin:round;}

		.st8{fill-rule:evenodd;clip-rule:evenodd;fill:url(#SVGID_9_);stroke:#FFFFFF;stroke-width:0.1;stroke-linecap:round;stroke-linejoin:round;}

		.st9{fill-rule:evenodd;clip-rule:evenodd;fill:url(#SVGID_10_);stroke:#FFFFFF;stroke-width:0.1;stroke-linecap:round;stroke-linejoin:round;}

		.st10{fill-rule:evenodd;clip-rule:evenodd;fill:url(#SVGID_11_);stroke:#FFFFFF;stroke-width:0.1;stroke-linecap:round;stroke-linejoin:round;}

		.st11{fill-rule:evenodd;clip-rule:evenodd;fill:url(#SVGID_12_);stroke:#FFFFFF;stroke-width:0.1;stroke-linecap:round;stroke-linejoin:round;}

		.st12{fill-rule:evenodd;clip-rule:evenodd;fill:url(#SVGID_13_);stroke:#FFFFFF;stroke-width:0.1;stroke-linecap:round;stroke-linejoin:round;}
	.st13{fill:url(#SVGID_14_);stroke:#FFFFFF;stroke-width:0.25;stroke-miterlimit:10;}
</style>
<linearGradient id="SVGID_1_" gradientUnits="userSpaceOnUse" x1="660.79" y1="-750.23" x2="120.09" y2="-750.23" gradientTransform="matrix(1 0 0 1 63.19 834.4301)">
	<stop  offset="0" style="stop-color:#00FFED"/>
	<stop  offset="0.83" style="stop-color:#9D00C6"/>
</linearGradient>
<path class="st0" d="M215.4,47.1c-7.2,0-13.2,1.5-17.8,4.6c-5.2,3.3-7.7,8-7.7,14.2c0,5.8,2.7,10.3,8.2,13.4
	c2.4,1.4,7.9,3.3,16.4,5.7c8.1,2.2,13.3,4.1,15.7,5.5c4.8,2.7,7.3,6.5,7.3,11.4c0,4.2-2,7.6-5.8,10.1s-9,3.7-15.3,3.7
	c-6.6,0-11.7-1.5-15.3-4.4c-4-3.3-6.3-8.3-7-15h-6c0.6,8.6,3.6,15.1,9,19.4c4.7,3.7,11.2,5.6,19.4,5.6s14.6-1.7,19.5-5.1
	c4.9-3.2,7.8-8.7,7.7-14.6c0-6.5-3-11.5-8.9-15c-3.2-2-9.3-4.2-18.4-6.8c-4.7-1.2-9.2-2.8-13.7-4.6c-4.5-2.4-6.7-5.5-6.7-9.5
	c0-4.5,1.8-7.9,5.6-10.1c3.3-2,7.8-3,13.6-3c6.2,0,11,1.4,14.4,4.3s5.5,7.1,6.3,12.7h6.1c-0.6-7.4-3.3-13-8-16.8
	S223.2,47.1,215.4,47.1z"/>
<linearGradient id="SVGID_2_" gradientUnits="userSpaceOnUse" x1="660.79" y1="-740.3801" x2="120.09" y2="-740.3801" gradientTransform="matrix(1 0 0 1 63.19 834.4301)">
	<stop  offset="0" style="stop-color:#00FFED"/>
	<stop  offset="0.83" style="stop-color:#9D00C6"/>
</linearGradient>
<path class="st1" d="M266.2,66.8c-7.3,0-13.1,2.7-17.5,8.1c-4.3,5.2-6.4,11.5-6.4,19.1c0,8.2,2.2,14.9,6.7,19.9
	c4.3,4.9,10.1,7.4,17.4,7.4c6.6,0,11.9-1.9,16.1-5.7c3.5-3.3,5.9-7.6,6.9-12.3h-6.1c-1,3.5-2.9,6.6-5.5,9.1
	c-3.2,2.5-7.3,3.9-11.4,3.7c-5.4,0-9.6-1.8-12.8-5.4s-4.8-8.6-5.1-14.9h42c-0.3-8.9-2.3-15.8-5.9-20.7
	C280.5,69.5,274.4,66.8,266.2,66.8z M266.3,72c10.9,0,16.9,6.3,17.9,18.9h-35.6c0.5-5.6,2.3-10.1,5.4-13.6S261.2,72,266.3,72
	L266.3,72z"/>
<linearGradient id="SVGID_3_" gradientUnits="userSpaceOnUse" x1="660.79" y1="-740.3801" x2="120.09" y2="-740.3801" gradientTransform="matrix(1 0 0 1 63.19 834.4301)">
	<stop  offset="0" style="stop-color:#00FFED"/>
	<stop  offset="0.83" style="stop-color:#9D00C6"/>
</linearGradient>
<path class="st2" d="M288.6,68.2l18.6,24.4l-20.8,27.3h7.2l17-22.8l16.9,22.8h7.2L314,92.6l18.5-24.4h-7.1l-14.8,19.9l-14.8-19.9
	H288.6z"/>
<linearGradient id="SVGID_4_" gradientUnits="userSpaceOnUse" x1="660.79" y1="-750.2301" x2="120.09" y2="-750.2301" gradientTransform="matrix(1 0 0 1 63.19 834.4301)">
	<stop  offset="0" style="stop-color:#00FFED"/>
	<stop  offset="0.83" style="stop-color:#9D00C6"/>
</linearGradient>
<path class="st3" d="M329,48.5v5.4h26.2v66h6.1v-66h26.2v-5.4H329z"/>
<linearGradient id="SVGID_5_" gradientUnits="userSpaceOnUse" x1="660.79" y1="-740.3801" x2="120.09" y2="-740.3801" gradientTransform="matrix(1 0 0 1 63.19 834.4301)">
	<stop  offset="0" style="stop-color:#00FFED"/>
	<stop  offset="0.83" style="stop-color:#9D00C6"/>
</linearGradient>
<path class="st4" d="M410.3,66.8c-7.6,0-13.7,2.7-18.2,8.2c-4.3,5.1-6.4,11.5-6.4,19.1s2.1,13.9,6.3,19c4.6,5.4,10.7,8.2,18.3,8.2
	s13.7-2.8,18.3-8.2c4.2-5.1,6.3-11.4,6.3-19s-2.1-14-6.3-19.1C424,69.5,417.8,66.8,410.3,66.8z M410.3,72c5.9,0,10.6,2.2,14,6.8
	c3,4,4.6,9.1,4.6,15.3c0.1,5.4-1.5,10.8-4.6,15.2c-3.3,4.4-8.5,7-14,6.8c-5.5,0.2-10.7-2.4-13.9-6.8c-3.1-4-4.6-9.1-4.6-15.2
	s1.5-11.3,4.6-15.3C399.8,74.2,404.3,72,410.3,72L410.3,72z"/>
<linearGradient id="SVGID_6_" gradientUnits="userSpaceOnUse" x1="660.79" y1="-730.4801" x2="120.09" y2="-730.4801" gradientTransform="matrix(1 0 0 1 63.19 834.4301)">
	<stop  offset="0" style="stop-color:#00FFED"/>
	<stop  offset="0.83" style="stop-color:#9D00C6"/>
</linearGradient>
<path class="st5" d="M431.7,68.2l20.5,50.4l-8.7,21.1h6.5l28.5-71.5h-6.6l-16.7,43.1l-16.9-43.1L431.7,68.2z"/>
<linearGradient id="SVGID_7_" gradientUnits="userSpaceOnUse" x1="660.79" y1="-740.3801" x2="120.09" y2="-740.3801" gradientTransform="matrix(1 0 0 1 63.19 834.4301)">
	<stop  offset="0" style="stop-color:#00FFED"/>
	<stop  offset="0.83" style="stop-color:#9D00C6"/>
</linearGradient>
<path class="st6" d="M494.9,66.8c-5.4,0-10,1.2-13.6,3.7c-3.8,2.6-5.6,5.9-5.6,10.1s1.9,7.5,5.9,9.9c2.4,1.5,6.6,3,12.6,4.6
	s9.7,2.7,11.5,3.6c3.4,1.7,5.1,4.1,5.1,7.2c0,6.8-5,10.2-15,10.2c-4.8,0-8.4-0.9-10.8-2.7c-2.6-2-4.2-5.3-4.8-9.8h-5.9
	c1.2,11.8,8.4,17.7,21.7,17.7c14,0,21-5.3,21-15.7c0-4.4-2.1-7.9-6.2-10.4c-2.6-1.6-7.1-3.2-13.4-4.8c-3.7-0.9-7.4-2.1-10.9-3.6
	c-3.1-1.6-4.6-3.7-4.6-6.3c0-2.6,1.4-4.9,3.6-6.2c2.4-1.6,5.5-2.3,9.3-2.3c4.6,0,8.1,0.9,10.5,2.8c2.2,1.7,3.6,4.3,4.3,7.9h5.9
	C514,72.1,507.1,66.8,494.9,66.8z"/>
<linearGradient id="SVGID_8_" gradientUnits="userSpaceOnUse" x1="660.79" y1="-750.2301" x2="120.09" y2="-750.2301" gradientTransform="matrix(1 0 0 1 63.19 834.4301)">
	<stop  offset="0" style="stop-color:#00FFED"/>
	<stop  offset="0.83" style="stop-color:#9D00C6"/>
</linearGradient>
<path class="st7" d="M543.1,47.1c-6.6,0-11.9,1.9-16,5.7c-4.3,3.9-6.8,9.2-7.4,15.9h6.1c0.6-5.2,2.4-9.1,5.4-11.9s6.9-4.3,11.9-4.3
	s9,1.3,11.9,3.9c2.7,2.7,4.2,6.4,4.1,10.2c0,4.4-1.4,7.7-4,10.1c-2.8,2.3-6.7,3.5-11.8,3.5h-5.7v5h6.3c5.1,0,9.1,1.2,12.1,3.8
	c3.1,2.7,4.8,6.6,4.6,10.6c0.1,4.4-1.6,8.7-4.8,11.7c-3.4,3.1-7.8,4.7-13.3,4.7c-4.3,0.1-8.5-1.2-11.8-3.9c-4-3.2-6.1-7.8-6.4-13.9
	h-6.2c0.6,8,3.4,14.1,8.6,18.1c4.2,3.3,9.5,5,15.9,5c7.1,0,12.9-2.1,17.4-6.1c4.4-4.1,6.9-9.8,6.7-15.8c0.1-3.8-1.1-7.6-3.5-10.6
	c-2.5-3-5.8-5.2-9.6-6.3c7.7-2.6,11.6-8,11.6-16.2c0-5.8-2-10.5-6-14S549.7,47.1,543.1,47.1z"/>
<linearGradient id="SVGID_9_" gradientUnits="userSpaceOnUse" x1="660.79" y1="-750.2247" x2="120.09" y2="-750.2247" gradientTransform="matrix(1 0 0 1 63.19 834.4301)">
	<stop  offset="0" style="stop-color:#00FFED"/>
	<stop  offset="0.83" style="stop-color:#9D00C6"/>
</linearGradient>
<path class="st8" d="M595.5,47.1c-8.1,0-14.4,3.8-19,11.4c-4.3,7.1-6.4,16.3-6.4,27.5c0,11,1.9,19.4,5.8,25.4
	c4.3,6.6,10.8,9.9,19.5,9.9c6.3,0.2,12.4-2.3,16.8-6.9c4.4-4.6,6.6-10.4,6.6-17.4c0-7-2.1-12.6-6.2-16.9s-9.5-6.5-16.3-6.5
	c-8.8-0.1-16.7,5.3-19.8,13.5h-0.4v-3.5c0-9,1.6-16.3,5-22.1c3.4-6.1,8.2-9.1,14.3-9.1c9,0,14.4,4.5,16.1,13.5h6.1
	C615.6,53.3,608.2,47.1,595.5,47.1z M595.3,78.8c5.2,0,9.5,1.6,12.7,5s4.7,7.7,4.7,13.2c0.2,5-1.6,9.8-4.8,13.6
	c-3.2,3.6-7.9,5.6-12.7,5.4c-5,0.2-9.8-1.9-13.1-5.7c-3.1-3.7-4.7-8.4-4.6-13.2c-0.2-4.9,1.7-9.6,5.2-13
	C586,80.6,590.6,78.7,595.3,78.8z"/>
<linearGradient id="SVGID_10_" gradientUnits="userSpaceOnUse" x1="660.79" y1="-749.53" x2="120.09" y2="-749.53" gradientTransform="matrix(1 0 0 1 63.19 834.4301)">
	<stop  offset="0" style="stop-color:#00FFED"/>
	<stop  offset="0.83" style="stop-color:#9D00C6"/>
</linearGradient>
<path class="st9" d="M627.7,48.5l-3.6,39h5.8c1.6-3,4-5.4,6.9-7.1c3-1.6,6.4-2.5,9.8-2.4c5.5,0,9.9,1.6,13.1,4.9s5,8.2,5,14.3
	c0.1,5-1.8,9.9-5.3,13.5c-3.5,3.5-8.4,5.4-13.4,5.3c-4.2,0.1-8.3-1.2-11.7-3.7c-3.5-2.7-5.7-6.9-6-11.3h-6.1
	c0.3,6,3.3,11.6,8.1,15.2c10.1,7.3,23.8,6.7,33.2-1.5c4.8-4.5,7.4-10.9,7.3-17.5c0-7.7-2.2-13.7-6.5-18.1c-4.2-4.2-9.7-6.3-16.5-6.3
	c-3.2,0-6.4,0.6-9.3,1.9c-3.1,1.2-5.8,3.2-7.9,5.7h-0.3l2.5-26.3h35.3v-5.6L627.7,48.5z"/>
<linearGradient id="SVGID_11_" gradientUnits="userSpaceOnUse" x1="660.79" y1="-719.4307" x2="120.09" y2="-719.4307" gradientTransform="matrix(1 0 0 1 63.19 834.4301)">
	<stop  offset="0" style="stop-color:#00FFED"/>
	<stop  offset="0.83" style="stop-color:#9D00C6"/>
</linearGradient>
<path class="st10" d="M681.4,109.9c-1.4-0.1-2.7,0.5-3.6,1.5c-1,0.9-1.5,2.2-1.5,3.6c0,1.4,0.5,2.7,1.5,3.7c1,0.9,2.3,1.4,3.6,1.4
	c1.3,0,2.6-0.5,3.6-1.4c1-1,1.5-2.3,1.5-3.7C686.5,112.2,684.2,109.9,681.4,109.9z"/>
<linearGradient id="SVGID_12_" gradientUnits="userSpaceOnUse" x1="660.79" y1="-741.0885" x2="120.09" y2="-741.0885" gradientTransform="matrix(1 0 0 1 63.19 834.4301)">
	<stop  offset="0" style="stop-color:#00FFED"/>
	<stop  offset="0.83" style="stop-color:#9D00C6"/>
</linearGradient>
<path class="st11" d="M714.3,66.8c-3.7-0.1-7.2,1.2-10,3.6c-2.5,2.1-4.5,4.7-5.7,7.7v-9.9h-6v51.7h6V92.6c-0.1-4.8,1.3-9.6,4.1-13.5
	c2.4-3.9,6.6-6.3,11.2-6.2c2.7,0,5.3,0.3,7.9,1.1v-6.1C719.4,67.1,716.9,66.7,714.3,66.8z"/>
<linearGradient id="SVGID_13_" gradientUnits="userSpaceOnUse" x1="660.79" y1="-739.6801" x2="120.09" y2="-739.6801" gradientTransform="matrix(1 0 0 1 63.19 834.4301)">
	<stop  offset="0" style="stop-color:#00FFED"/>
	<stop  offset="0.83" style="stop-color:#9D00C6"/>
</linearGradient>
<path class="st12" d="M720.7,68.2v31.9c0,14.1,6.3,21.2,18.9,21.2c7.4,0,13.2-3.4,17.2-10.1v8.7h6V68.2h-6v31.4
	c-0.2,4.5-2,8.7-5.1,11.9c-2.7,2.9-6.5,4.6-10.5,4.6c-5,0-8.7-1.4-11.1-4.2c-2.3-2.7-3.4-6.7-3.4-12.1V68.2L720.7,68.2z"/>
<linearGradient id="SVGID_14_" gradientUnits="userSpaceOnUse" x1="0.3759" y1="77.1333" x2="183.2167" y2="77.1333">
	<stop  offset="0" style="stop-color:#0DEAEA"/>
	<stop  offset="0.1234" style="stop-color:#29BDE3"/>
	<stop  offset="0.2955" style="stop-color:#4C84DA"/>
	<stop  offset="0.4627" style="stop-color:#6955D3"/>
	<stop  offset="0.6207" style="stop-color:#8030CD"/>
	<stop  offset="0.7672" style="stop-color:#9016C9"/>
	<stop  offset="0.8979" style="stop-color:#9A06C7"/>
	<stop  offset="1" style="stop-color:#9D00C6"/>
</linearGradient>
<path class="st13" d="M183.1,94c-0.5-3.5-5.4-6.3-5.4-6.3s1.5-1.6,2.5-3.5c1.1-1.9,1.4-4.4-0.5-7.2c-1.9-2.8-5.4-3.1-5.4-3.1
	s-3.4-0.4-5.1,1.7c-1.8,2.1-2.6,3.2-2.6,3.2l-5.2-3.9c0,0,14-23.5-2.2-49.6C142.8-0.7,116.8,2.2,106.4,4.8c-10.4,2.6-17.3,9-17.3,9
	s-6-5.1-17-7.7c-11-2.7-18-1.7-27.2,1c-9.2,2.7-16.4,9.6-16.4,9.6l-4.7-3.9c0,0,4.3-3,2.6-7.8s-4.5-5.4-10.1-4.5
	C10.6,1.5,6,2.4,3.9,4.2s-2.8,9.2-2.8,9.2s-1.8,8.4,0.4,10.7c2.1,2.3,4.9,3.8,8.1,2.4c3.2-1.3,4-3.7,4-3.7l5.7,4.8c0,0-14,21-3.4,43
	c2.8,5.9,9,14.4,16.6,23.6c6.2,7.5,51.7,56.5,51.7,56.5s5.3,7.6,12.1,0c6.7-7.6,57.2-64.6,57.2-64.6l4.4,3.9c0,0-5.6,5.9-2.4,10.3
	s7.7,3.7,9.7,2.6c2-1.1,3.8-4.1,3.8-4.1l3.6,2.8c0,0,2.4,1.7,6.1,0.5S183.6,97.5,183.1,94z M89.3,35.7c0,0,4.6,7.4,4.6,17.2
	c0,9.8-4.3,16.4-4.3,16.4s-4-7.6-4.4-16.6S89.3,35.7,89.3,35.7z M34.3,74.4c-6.7-7.9-7.8-16.2-7.8-23.5c0-7.3,3-15.1,9.9-22.1
	c6.9-7,13.4-8.8,20.5-9.6c7.1-0.8,13.8,1.5,15.8,2.3c2.7,1.1,6.5,3.5,6.5,3.5S72.6,34,71.4,46c-1.2,12,1.2,19.5,2.8,24.4
	c1.4,4.2,5.4,9.9,5.4,9.9s-8,5.9-18.5,6.2S41,82.3,34.3,74.4z M90.2,136.1L58,100.6l-0.2-0.2c0,0,8.7,0.1,16.8-2.2
	s14.5-7.4,14.5-7.4s5.6,4.5,14,7.8c8.4,3.3,18.1,2.6,18.1,2.6L90.2,136.1z M144.7,74.5c-6.8,8.1-16.4,12.7-26.9,12.4
	c-10.6-0.2-18.6-6.6-18.6-6.6s4.6-6.9,6.2-11.9c1.6-5,3.5-10.3,2.3-22.6c-1.2-12.3-8.8-21.7-8.8-21.7s4-2.7,6-3.7s8.7-4,15.8-3.2
	c7.1,0.8,14.9,2.7,21.9,9.9c7,7.2,10,16,10.1,23.5S151.5,66.4,144.7,74.5z"/>
</svg>
