<svg id="Layer_1" xmlns="http://www.w3.org/2000/svg" viewBox="0 0 130 40"><style>.st0{fill:#ba00e9;stroke:#ba00e9;stroke-miterlimit:10}</style><path class="st0" d="M86.74 25.44c0 1.06-.41 2.06-1.16 2.81s-1.75 1.16-2.81 1.16h-5.4v-1.77h5.4c.59 0 1.14-.23 1.56-.65.42-.42.65-.97.65-1.56 0-.59-.23-1.14-.65-1.56-.42-.42-.97-.65-1.56-.65H80.9c-1.06 0-2.06-.41-2.81-1.16a3.948 3.948 0 0 1-1.16-2.81c0-1.06.41-2.06 1.16-2.81s1.75-1.16 2.81-1.16h4.96v1.77H80.9c-.59 0-1.14.23-1.56.65-.42.42-.65.97-.65 1.56 0 .59.23 1.14.65 1.56.42.42.97.65 1.56.65h1.87c1.06 0 2.06.41 2.81 1.16a3.99 3.99 0 0 1 1.16 2.81zM99.46 15.28v14.13h-1.77v-7.57l-7.07 2.93v4.65h-1.77V15.28h1.77v7.57l7.07-2.93v-4.65h1.77zM116.1 22.35c0 2.01-.81 3.82-2.13 5.14a7.255 7.255 0 0 1-5.14 2.13c-2.01 0-3.82-.81-5.14-2.13a7.255 7.255 0 0 1-2.13-5.14c0-2.01.81-3.82 2.13-5.14a7.255 7.255 0 0 1 5.14-2.13c2.01 0 3.82.81 5.14 2.13a7.231 7.231 0 0 1 2.13 5.14zm-1.76 0c0-1.47-.57-2.85-1.61-3.89a5.46 5.46 0 0 0-3.89-1.61c-1.47 0-2.85.57-3.89 1.61a5.46 5.46 0 0 0-1.61 3.89c0 1.47.57 2.85 1.61 3.89a5.46 5.46 0 0 0 3.89 1.61c1.47 0 2.85-.57 3.89-1.61a5.46 5.46 0 0 0 1.61-3.89zm-5.5 1.25l-1.25-1.25 1.25-1.25 1.25 1.25-1.25 1.25zM128.82 19.99c0 1.26-.49 2.44-1.38 3.33-.89.89-2.07 1.38-3.33 1.38h-4.12v4.71h-1.77V15.28h5.89c1.26 0 2.44.49 3.33 1.38.89.89 1.38 2.08 1.38 3.33zm-1.76 0c0-.79-.31-1.53-.86-2.08a2.92 2.92 0 0 0-2.08-.86H120v5.89h4.12c.79 0 1.52-.31 2.08-.86.55-.56.86-1.3.86-2.09z"/><g><path d="M31.45 23.03c-1.08 3.36-2.29 6.77-4.07 9.83-.87 1.49-2.19 3.75-4.19 3.79-4.99.08-5.43-6.93-5.39-10.21.04-3.45.36-6.89.47-10.34.1-3.12-.41-5.82-.85-8.82-.06.02-.1.03-.12.05-.43.49-1.02.84-1.45 1.37-1.3 1.61-2.21 3.57-3.06 5.44-2.3 5.04-4.05 10.32-5.78 15.58-.73 2.21-1.43 4.43-2.16 6.64-.25.77-.62 3.07-1.33 3.6-.88.65-2.64-.82-2.96-1.73-.38-1.09.28-2.67.56-3.73C3.5 25.3 6.71 16.27 9.8 7.29c.09-.27 1.27.28 2.07.97.79-1.44 1.94-3.25 3.49-3.46 2.23-.3 4.25 2.44 4.93 4.19 1.53 3.98.87 8.84.64 12.98-.22 3.98-.9 8.48.38 12.35.06-.03.12-.08.2-.16.07-.07.44-.25.57-.33.58-.36 1.04-.98 1.44-1.51 1.1-1.43 1.9-3.11 2.63-4.74 2.1-4.7 3.56-9.71 4.72-14.7.91-3.92 1.82-8.04 1.73-12.08-.01-.58 2.83.96 2.86 1.91.16 6.77-1.95 13.92-4.01 20.32zM51.93 21.87c-3.21 3.34-8.09 6.85-12.95 6.75-6.68-.14-4.78-6.28-1.79-9.72 1.29-1.48 3.12-3.22 5.12-3.64 1.64-.35 2.95.44 2.46 2.16-.82 2.88-4.6 5.21-7.43 6.83 1.01 1.81 4.45 1.96 6.77 1.15 2.56-.89 4.92-2.65 6.78-4.59 1.47-1.54 2.47-.43 1.04 1.06zm-14.81.59c1.54-.86 3.46-1.89 4.42-3.19.76-1.03.46-1.69-.98-1.31-1.31.34-2.54 2.22-3.06 3.34-.18.41-.31.8-.38 1.16z"/><path d="M71.92 21.64a9.783 9.783 0 0 1-3.48 3.13c-1.57.83-3.87 1.29-5.56.45-1.17 1.46-2.65 3.06-4.41 3.62-2.75.87-2.97-1.5-2.58-3.83-.37.4-.74.8-1.12 1.18-.95.97-3.46 3.78-5.12 3.34-2.56-.67.81-8.1 1.43-9.69.35-.89 3.23-2.71 2.55-.98-.4 1.01-.76 2.04-1.1 3.07-.23.7-1.59 4.04-.96 4.71.69.74 4.91-4.65 5.64-5.61.4-.52 2.74-1.97 2.12-.3-.4 1.07-1.77 4.73-.42 5.5.76.43 1.92-.63 2.89-1.95-1.11-1.96 1.92-5.1 3.63-5.72.6-.22.89.04.8.53.03.07.04.15.03.27-.1 1.03-.66 2.12-1.32 3.12.13.09.28.17.44.24 1.12.44 2.66.39 3.7-.22l.3-.19c.03-.02.22-.2.28-.26.2-.21.17-.22.07-.08.35-.52 1.21-1.52 1.94-1.48.73.02.57.67.25 1.15z"/></g></svg>