<svg xmlns="http://www.w3.org/2000/svg" xmlns:xlink="http://www.w3.org/1999/xlink" width="130" height="40" viewBox="0 0 130 40"><defs><path id="a" d="M0 0h130v40H0z"/></defs><clipPath id="b"><use xlink:href="#a" overflow="visible"/></clipPath><path clip-path="url(#b)" fill="#BA00E9" d="M86.739 25.441a3.95 3.95 0 0 1-1.164 2.811 3.954 3.954 0 0 1-2.811 1.164h-5.398v-1.767h5.398c.588 0 1.145-.229 1.563-.647.416-.417.645-.97.645-1.561 0-.589-.229-1.145-.646-1.561a2.186 2.186 0 0 0-1.561-.647H80.9a3.957 3.957 0 0 1-2.811-1.164c-.75-.75-1.163-1.749-1.163-2.811s.413-2.059 1.163-2.811a3.953 3.953 0 0 1 2.811-1.164h4.956v1.766H80.9c-.589 0-1.144.23-1.561.648a2.189 2.189 0 0 0-.647 1.561c0 .591.229 1.144.646 1.56.418.419.973.648 1.562.648h1.865c1.062 0 2.059.414 2.811 1.164a3.96 3.96 0 0 1 1.163 2.811"/><path clip-path="url(#b)" fill="none" stroke="#BA00E9" stroke-miterlimit="10" d="M86.739 25.441a3.95 3.95 0 0 1-1.164 2.811 3.954 3.954 0 0 1-2.811 1.164h-5.398v-1.767h5.398c.588 0 1.145-.229 1.563-.647.416-.417.645-.97.645-1.561 0-.589-.229-1.145-.646-1.561a2.186 2.186 0 0 0-1.561-.647H80.9a3.957 3.957 0 0 1-2.811-1.164c-.75-.75-1.163-1.749-1.163-2.811s.413-2.059 1.163-2.811a3.953 3.953 0 0 1 2.811-1.164h4.956v1.766H80.9c-.589 0-1.144.23-1.561.648a2.189 2.189 0 0 0-.647 1.561c0 .591.229 1.144.646 1.56.418.419.973.648 1.562.648h1.865c1.062 0 2.059.414 2.811 1.164a3.96 3.96 0 0 1 1.163 2.811z"/><path clip-path="url(#b)" fill="#BA00E9" d="M99.459 15.284v14.132h-1.767v-7.574l-7.066 2.927v4.647h-1.767V15.284h1.767v7.574l7.066-2.926v-4.648z"/><path clip-path="url(#b)" fill="none" stroke="#BA00E9" stroke-miterlimit="10" d="M99.459 15.284v14.132h-1.767v-7.574l-7.066 2.927v4.647h-1.767V15.284h1.767v7.574l7.066-2.926v-4.648z"/><path clip-path="url(#b)" fill="#BA00E9" d="M116.104 22.35c0 2.006-.813 3.821-2.127 5.136s-3.131 2.127-5.136 2.127c-2.006 0-3.821-.813-5.136-2.127s-2.127-3.13-2.127-5.136a7.24 7.24 0 0 1 2.127-5.135 7.237 7.237 0 0 1 5.136-2.127 7.24 7.24 0 0 1 5.136 2.127 7.234 7.234 0 0 1 2.127 5.135m-1.766 0c0-1.468-.572-2.848-1.61-3.886s-2.418-1.61-3.886-1.61a5.462 5.462 0 0 0-3.887 1.61 5.459 5.459 0 0 0-1.609 3.886c0 1.469.571 2.849 1.609 3.886a5.458 5.458 0 0 0 3.887 1.61 5.456 5.456 0 0 0 3.886-1.61 5.46 5.46 0 0 0 1.61-3.886m-5.498 1.254l-1.249-1.249 1.249-1.25 1.249 1.25-1.249 1.249z"/><path clip-path="url(#b)" fill="none" stroke="#BA00E9" stroke-miterlimit="10" d="M116.104 22.35c0 2.006-.813 3.821-2.127 5.136s-3.131 2.127-5.136 2.127c-2.006 0-3.821-.813-5.136-2.127s-2.127-3.13-2.127-5.136a7.24 7.24 0 0 1 2.127-5.135 7.237 7.237 0 0 1 5.136-2.127 7.24 7.24 0 0 1 5.136 2.127 7.234 7.234 0 0 1 2.127 5.135zm-1.766 0c0-1.468-.572-2.848-1.61-3.886s-2.418-1.61-3.886-1.61a5.462 5.462 0 0 0-3.887 1.61 5.459 5.459 0 0 0-1.609 3.886c0 1.469.571 2.849 1.609 3.886a5.458 5.458 0 0 0 3.887 1.61 5.456 5.456 0 0 0 3.886-1.61 5.46 5.46 0 0 0 1.61-3.886zm-5.498 1.254l-1.249-1.249 1.249-1.25 1.249 1.25-1.249 1.249z"/><path clip-path="url(#b)" fill="#BA00E9" d="M128.824 19.994a4.682 4.682 0 0 1-1.38 3.331 4.682 4.682 0 0 1-3.331 1.38h-4.122v4.711h-1.767V15.284h5.889c1.257 0 2.441.49 3.331 1.379a4.682 4.682 0 0 1 1.38 3.331m-1.767 0c0-.787-.306-1.525-.861-2.083a2.932 2.932 0 0 0-2.082-.861h-4.122v5.888h4.122c.786 0 1.524-.306 2.082-.861a2.93 2.93 0 0 0 .861-2.083"/><path clip-path="url(#b)" fill="none" stroke="#BA00E9" stroke-miterlimit="10" d="M128.824 19.994a4.682 4.682 0 0 1-1.38 3.331 4.682 4.682 0 0 1-3.331 1.38h-4.122v4.711h-1.767V15.284h5.889c1.257 0 2.441.49 3.331 1.379a4.682 4.682 0 0 1 1.38 3.331zm-1.767 0c0-.787-.306-1.525-.861-2.083a2.932 2.932 0 0 0-2.082-.861h-4.122v5.888h4.122c.786 0 1.524-.306 2.082-.861a2.93 2.93 0 0 0 .861-2.083z"/><path clip-path="url(#b)" fill="#FFF" d="M31.453 23.032c-1.078 3.356-2.287 6.766-4.07 9.829-.869 1.493-2.194 3.752-4.193 3.785-4.99.083-5.427-6.928-5.393-10.206.037-3.45.362-6.892.469-10.34.098-3.116-.409-5.82-.847-8.819a.293.293 0 0 0-.115.053c-.433.486-1.021.841-1.449 1.369-1.301 1.609-2.208 3.574-3.057 5.439-2.296 5.04-4.053 10.324-5.777 15.576-.727 2.213-1.43 4.434-2.162 6.645-.255.769-.617 3.073-1.329 3.596-.881.646-2.642-.818-2.956-1.732-.375-1.095.284-2.674.556-3.727 2.375-9.2 5.59-18.23 8.682-27.213.094-.274 1.268.278 2.065.966.794-1.442 1.941-3.252 3.487-3.46 2.229-.3 4.254 2.44 4.929 4.194 1.531 3.977.872 8.838.643 12.977-.22 3.981-.896 8.477.377 12.349a.946.946 0 0 0 .2-.161c.066-.068.44-.246.569-.327.579-.359 1.039-.979 1.444-1.508 1.097-1.433 1.897-3.108 2.627-4.743 2.098-4.698 3.556-9.708 4.72-14.704.913-3.92 1.822-8.039 1.727-12.085-.014-.582 2.834.963 2.857 1.913.16 6.783-1.946 13.93-4.004 20.334M51.931 21.875c-3.207 3.339-8.095 6.851-12.947 6.749-6.685-.141-4.782-6.281-1.793-9.721 1.288-1.482 3.121-3.217 5.123-3.645 1.64-.351 2.948.439 2.456 2.161-.822 2.875-4.6 5.206-7.429 6.833 1.007 1.81 4.453 1.956 6.773 1.146 2.556-.892 4.917-2.651 6.776-4.587 1.475-1.537 2.475-.431 1.041 1.064m-14.811.584c1.544-.859 3.459-1.885 4.424-3.191.76-1.029.455-1.686-.979-1.313-1.306.34-2.545 2.216-3.056 3.337-.194.422-.321.81-.389 1.167"/><path clip-path="url(#b)" fill="#FFF" d="M71.92 21.638a9.756 9.756 0 0 1-3.484 3.128c-1.57.825-3.87 1.289-5.557.452-1.165 1.463-2.654 3.061-4.414 3.62-2.747.874-2.965-1.501-2.58-3.832-.365.401-.737.797-1.116 1.184-.946.967-3.46 3.775-5.124 3.34-2.561-.67.805-8.097 1.43-9.69.35-.891 3.228-2.708 2.55-.977a53.824 53.824 0 0 0-1.099 3.068c-.226.698-1.586 4.04-.964 4.706.694.745 4.907-4.652 5.641-5.614.397-.519 2.737-1.967 2.117-.301-.399 1.074-1.766 4.73-.416 5.498.758.433 1.922-.633 2.892-1.948-1.112-1.964 1.921-5.101 3.629-5.722.596-.217.895.038.801.529a.597.597 0 0 1 .03.268c-.096 1.033-.656 2.116-1.319 3.117.131.094.281.173.442.236 1.117.443 2.659.387 3.699-.223.085-.05.267-.167.297-.188.033-.023.219-.201.279-.258.202-.209.17-.223.073-.076.347-.517 1.213-1.521 1.941-1.483.728.035.572.689.252 1.166"/></svg>