<svg xmlns="http://www.w3.org/2000/svg" viewBox="0 0 512 512"><path d="M433.2 394c21.72 0 39.33 17.6 39.33 39.33v.14c0 21.72-17.6 39.33-39.33 39.33h-.14a37.52 37.52 0 0 1-27.8-11.54c-15.35-15.48-15.25-40.47.23-55.82a39.48 39.48 0 0 1 27.57-11.45l.14.01zm-275.6 0c21.8.12 39.37 17.9 39.24 39.7a39.48 39.48 0 0 1-11.45 27.57c-15.4 15.26-40.2 15.26-55.6 0-15.35-15.48-15.25-40.47.23-55.82A39.48 39.48 0 0 1 157.6 394zM295.33 98.4c-10.8.15-19.52 8.92-19.6 19.74v90.2l-45.3-45.03c-7.4-7.68-19.64-7.9-27.32-.48l-.48.48a19.19 19.19 0 0 0-5.84 13.9c-.07 5.24 2.05 10.28 5.84 13.9l78.8 78.8c7.4 7.68 19.64 7.9 27.32.48l79.28-79.28c3.8-3.62 5.9-8.66 5.84-13.9a19.19 19.19 0 0 0-5.84-13.9c-7.4-7.68-19.64-7.9-27.32-.48l-.48.48-45.3 45.03v-90.2a19.89 19.89 0 0 0-19.74-19.74h.16zM19.74 39.2H98.4c3.1-.05 6.15.66 8.9 2.08 2.33 1.15 4.4 2.76 6.12 4.73 1.67 2.16 3.03 4.55 4.03 7.1a56.75 56.75 0 0 1 2.22 8.2l1.67 9.17c.6 2.57 1.07 5.17 1.4 7.78h369.54c10.87.08 19.66 8.87 19.73 19.74V256a20.15 20.15 0 0 1-4.86 13.2c-3.2 3.73-7.75 6.07-12.65 6.53l-321.3 37.67c0 1.4 0 3.6 1.4 6.53s1.4 5.7 1.95 8.2c.42 2.25.65 4.52.7 6.8-1.22 6.93-3.72 13.58-7.37 19.6h283.1a19.33 19.33 0 0 1 13.9 5.98c7.68 7.4 7.9 19.64.48 27.32l-.48.48a19.19 19.19 0 0 1-13.9 5.84H137.87c-10.92-.08-19.74-8.95-19.74-19.87a32.17 32.17 0 0 1 3.47-12.09c2.22-5.28 5.28-11.4 9.03-18.35l6.25-11.67L82.42 78.66H19.74c-5.24.07-10.28-2.05-13.9-5.84A18.9 18.9 0 0 1 0 58.93c-.02-5.23 2.1-10.25 5.84-13.9 3.62-3.8 8.65-5.9 13.9-5.84z" fill-rule="evenodd" fill="#7c7c7c"/></svg>