<svg xmlns="http://www.w3.org/2000/svg" viewBox="0 0 512 512" fill-rule="evenodd" fill="#7c7c7c"><path d="M176.88 325h-52.34a8.11 8.11 0 0 0-4.78 1.32 3.66 3.66 0 0 0-1.83 3.15v26.73a3.66 3.66 0 0 0 1.83 3.15 7.98 7.98 0 0 0 4.78 1.32h52.34a7.73 7.73 0 0 0 4.78-1.32 3.66 3.66 0 0 0 1.83-3.15v-26.73a3.66 3.66 0 0 0-1.83-3.15 7.88 7.88 0 0 0-4.78-1.32zm0-71.24H85.4a7.52 7.52 0 0 0-4.67 1.32 3.66 3.66 0 0 0-1.83 3.15v26.73a3.66 3.66 0 0 0 1.83 3.15c1.37.95 3 1.4 4.67 1.32h91.47a7.73 7.73 0 0 0 4.78-1.32 3.66 3.66 0 0 0 1.83-3.15v-26.73a3.66 3.66 0 0 0-1.83-3.15c-1.4-.95-3.1-1.4-4.78-1.32zm0-71.24h-131a8.39 8.39 0 0 0-4.67 1.32c-1.1.66-1.8 1.86-1.83 3.15v26.73a3.85 3.85 0 0 0 1.83 3.25 8.45 8.45 0 0 0 4.67 1.22h131c1.68.07 3.34-.35 4.78-1.22 1.13-.7 1.82-1.93 1.83-3.25V187a3.76 3.76 0 0 0-1.83-3.15 8.61 8.61 0 0 0-4.78-1.32zm0-71.14H6.65c-1.68-.07-3.34.35-4.78 1.22-1.1.66-1.8 1.86-1.83 3.15v26.73a3.76 3.76 0 0 0 1.83 3.25c1.44.87 3.1 1.3 4.78 1.22h170.23a8.51 8.51 0 0 0 5.18-1.22 3.76 3.76 0 0 0 1.83-3.25v-26.73a3.76 3.76 0 0 0-1.83-3.15c-1.44-.87-3.1-1.3-4.78-1.22h-.4z"/><path d="M296.7 68.8a155.13 155.13 0 0 1 60.98 12.5c38.3 15.7 68.7 46.07 84.45 84.35a155.92 155.92 0 0 1 12.5 61.59 154.2 154.2 0 0 1-27.95 89.74l77.14 77.14c11.12 11.5 10.8 29.84-.7 40.96-5.28 5.1-12.3 8-19.62 8.13a26.66 26.66 0 0 1-20.33-8.54l-77.24-76.93a153.89 153.89 0 0 1-89.74 27.85 155.92 155.92 0 0 1-61.59-12.5c-38.24-15.75-68.6-46.1-84.35-84.35-16.67-39.33-16.67-83.74 0-123.07 15.75-38.24 46.1-68.6 84.35-84.35a155.74 155.74 0 0 1 62.1-12.52zm0 57.63a97.13 97.13 0 0 0-71.14 29.57c-19.24 18.62-29.94 44.37-29.57 71.14a96.96 96.96 0 0 0 29.57 71.14c39.3 39.3 103 39.3 142.28 0a96.92 96.92 0 0 0 29.57-71.14 97.13 97.13 0 0 0-29.57-71.14 97.13 97.13 0 0 0-71.14-29.57z" stroke="#fff" stroke-miterlimit="10"/></svg>