<svg xmlns="http://www.w3.org/2000/svg" viewBox="0 0 512 512"><path d="M137.4 36.14a112.44 112.44 0 0 1 35.94 6.18c12.06 4 23.54 9.6 34.14 16.62 10.56 6.83 19.58 12.88 27.18 19.45a282.48 282.48 0 0 1 22.03 19.45c6.88-6.85 14.1-13.34 21.64-19.45 7.6-6.06 16.62-12.88 27.18-19.45 10.6-7 22.1-12.58 34.14-16.62 11.6-4 23.8-6.1 36.07-6.18 36.73-2.1 72.76 10.67 99.97 35.43a131.52 131.52 0 0 1 36.07 98.3c0 42.1-21.73 85.03-65.2 128.83L268.8 470.05c-3.33 3.53-8.04 5.4-12.88 5.15a16.88 16.88 0 0 1-12.88-5.15L66.15 297.93a85.23 85.23 0 0 1-7.86-7.34c-3.22-3.48-8.5-9.66-15.72-18.8-7.06-8.72-13.56-17.9-19.45-27.44-6.28-10.94-11.38-22.5-15.2-34.53-4.3-12.75-6.56-26.1-6.7-39.55a131.59 131.59 0 0 1 36.46-98.69c27.2-24.76 63.24-37.53 99.97-35.43h-.26zm0 36.6c-9.37-.04-18.72.73-27.96 2.32a103.85 103.85 0 0 0-26.8 8.89 77.3 77.3 0 0 0-23.19 17.01 79.72 79.72 0 0 0-15.59 28.09c-4.33 13.17-6.42 26.98-6.18 40.84 0 32.12 17.74 65.96 53.2 101.52l165.8 160.14 165.16-159.88c35.73-35.82 53.55-69.74 53.47-101.78a124.11 124.11 0 0 0-6.06-40.84 79.79 79.79 0 0 0-15.72-28.09 73.99 73.99 0 0 0-23.19-17.01c-8.44-4.17-17.4-7.16-26.67-8.9-9.23-1.6-18.6-2.36-27.96-2.32a81.62 81.62 0 0 0-31.95 7.34 144.46 144.46 0 0 0-31.44 18.29c-9.53 7.34-17.78 14.17-24.6 20.48-6 5.55-11.7 11.44-17 17.65-3.46 4.16-8.64 6.5-14.04 6.3a17.27 17.27 0 0 1-13.91-6.31c-5.37-6.2-11.1-12.1-17.13-17.65-6.83-6.3-14.94-12.88-24.6-20.48-9.65-7.42-20.2-13.57-31.44-18.3a80.86 80.86 0 0 0-31.82-7.34h-.37z" fill-rule="evenodd" fill="#7c7c7c"/></svg>