<svg xmlns="http://www.w3.org/2000/svg" viewBox="0 0 512 512"><path d="M510.43 303.06c-1.4-9.75-15.05-17.56-15.05-17.56s4.18-4.46 6.97-9.75c3.07-5.3 3.9-12.26-1.4-20.07-5.3-7.8-15.05-8.64-15.05-8.64s-9.48-1.1-14.2 4.74c-5.02 5.85-7.25 8.92-7.25 8.92l-14.5-10.87s39.02-65.5-6.13-138.24c-45.7-72.46-118.17-64.38-147.15-57.13s-48.22 25.08-48.22 25.08-16.72-14.2-47.38-21.46c-30.66-7.52-50.17-4.74-75.8 2.8s-45.7 26.76-45.7 26.76l-13.1-10.87s11.98-8.36 7.25-21.74c-4.74-13.38-12.54-15.05-28.15-12.54-15.88 2.8-28.7 5.3-34.56 10.3S3.2 78.43 3.2 78.43s-5.02 23.4 1.1 29.82c5.85 6.4 13.66 10.6 22.57 6.7 8.92-3.62 11.15-10.3 11.15-10.3L53.92 118s-39.02 58.53-9.48 119.84c7.8 16.44 25.08 40.13 46.26 65.77 17.28 20.9 144.1 157.47 144.1 157.47s14.77 21.18 33.72 0l159.42-180.04 12.26 10.87s-15.6 16.44-6.7 28.7c8.92 12.26 21.46 10.3 27.03 7.25 5.57-3.07 10.6-11.43 10.6-11.43l10.03 7.8s6.7 4.74 17 1.4c10.33-3.35 13.68-12.82 12.28-22.58zM249 140.58s12.82 20.62 12.82 47.94-11.98 45.7-11.98 45.7-11.15-21.18-12.26-46.26 11.42-47.4 11.42-47.4zM95.73 248.44C77.06 226.42 74 203.3 74 182.95s8.36-42.08 27.6-61.6 37.35-24.53 57.13-26.76c19.8-2.23 38.46 4.18 44.03 6.4 7.52 3.07 18.12 9.75 18.12 9.75s-18.4 25.08-21.74 58.53 3.34 54.35 7.8 68c3.9 11.7 15.05 27.6 15.05 27.6s-22.3 16.44-51.56 17.28-56-11.7-74.68-33.72zm155.8 171.96l-89.74-98.94-.56-.56s24.25.28 46.82-6.13 40.4-20.62 40.4-20.62 15.6 12.54 39.02 21.74 50.44 7.25 50.44 7.25l-86.4 97.26zm151.9-171.68c-18.95 22.57-45.7 35.4-74.97 34.56-29.54-.56-51.84-18.4-51.84-18.4s12.82-19.23 17.28-33.17c4.46-13.93 9.75-28.7 6.4-63s-24.53-60.48-24.53-60.48 11.15-7.52 16.72-10.3 24.25-11.15 44.03-8.92c19.8 2.23 41.53 7.52 61.04 27.6s27.87 44.6 28.15 65.5-3.34 44.04-22.3 66.62z" fill="#7c7c7c" stroke="#fff" stroke-width=".25" stroke-miterlimit="10"/></svg>