<svg xmlns="http://www.w3.org/2000/svg" viewBox="0 0 512 512"><path d="M137.34 235.63a41.31 41.31 0 0 1 13.97 7.21l24.33 15.92a154.08 154.08 0 0 0 36.05 16.07 140.27 140.27 0 0 0 88.77 0c12.64-3.82 24.76-9.22 36.05-16.07l24.78-15.92c4.1-3.33 8.87-5.8 13.97-7.2a98.87 98.87 0 0 1 37.1 6.76 86.14 86.14 0 0 1 28.39 17.72c8.17 7.97 15.15 17.08 20.73 27.04 5.86 10.3 10.64 21.17 14.27 32.44 3.74 11.86 6.7 23.95 8.86 36.2 2.25 13.07 3.76 25.08 4.66 36.35s1.05 22.68 1.05 34.4c1.2 23.54-7.57 46.5-24.18 63.24-17.64 15.92-40.85 24.24-64.6 23.13H110.6c-23.74 1.1-46.95-7.2-64.6-23.13a83.21 83.21 0 0 1-24.33-63.24c0-11.72 0-23.13 1.2-34.4a352.71 352.71 0 0 1 4.66-36.35c2.16-12.25 5.12-24.34 8.86-36.2a172.05 172.05 0 0 1 14.27-32.44c5.58-9.96 12.56-19.06 20.73-27.04 8.2-7.74 17.84-13.77 28.4-17.72a98.87 98.87 0 0 1 37.1-6.76h.44zM256 1c33.94-.47 66.56 13.12 90.12 37.55a123.32 123.32 0 0 1 37.4 90.12 123.78 123.78 0 0 1-37.4 90.12c-49.86 49.57-130.4 49.57-180.24 0-24.32-23.64-37.9-56.2-37.55-90.12-.4-33.92 13.18-66.52 37.55-90.12A122.74 122.74 0 0 1 256 1.01z" fill-rule="evenodd" fill="#7c7c7c"/></svg>